# xmcd CD database file
#
# Track frame offsets:
#	150
#	19952
#	33622
#	44575
#	59526
#	76419
#	89757
#	107405
#	120839
#	132725
#	144786
#	157943
#	178286
#	190746
#
# Disc length: 2752 seconds
#
# Revision: 0
# Processed by: cddbd v1.5.2PL0 Copyright (c) Steve Scherf et al.
# Submitted via: CDex 1.70beta2
#
DISCID=c00abe0e
DTITLE=Various Artist - I remember bebop disc2
DYEAR=1977
DGENRE=Jazz
TTITLE0=Water Bishop Jr. - Charlie Parker: Star Eyes
TTITLE1=Water Bishop Jr. - Charlie Parker: Au Private
TTITLE2=Water Bishop Jr. - Charlie Parker: Ornithology
TTITLE3=Barry Harris - Thelonious Monk: Epistrophy
TTITLE4=Barry Harris - Thelonious Monk: In Walked Bud
TTITLE5=Barry Harris - Thelonious Monk: 52nd Street Theme
TTITLE6=Barry Harris - Thelonious Monk: Ruby, My Dear
TTITLE7=Tommy Flanagan - Bud Powell: Strictly Confidential
TTITLE8=Tommy Flanagan - Bud Powell: Dance of the Infidels
TTITLE9=Tommy Flanagan - Bud Powell: Bouncing with Bud
TTITLE10=Tommy Flanagan - Bud Powell: I'll Keep Loving You
TTITLE11=Jimmie Rowles - Miles Davis Nonet: Jeru
TTITLE12=Jimmie Rowles - Miles Davis Nonet: Venus de Milo
TTITLE13=Jimmie Rowles - Miles Davis Nonet: Godchild
EXTD=YEAR: 1977
EXTT0=
EXTT1=
EXTT2=
EXTT3=
EXTT4=
EXTT5=
EXTT6=
EXTT7=
EXTT8=
EXTT9=
EXTT10=
EXTT11=
EXTT12=
EXTT13=
PLAYORDER=
